<svg width="1280" height="640" viewBox="0 0 1280 640" fill="none" xmlns="http://www.w3.org/2000/svg" role="img" aria-label="HaleES Architecture header">
  <defs>
    <radialGradient id="goldGlow" cx="50%" cy="44%" r="56%">
      <stop offset="0%" stop-color="#D4AF37" stop-opacity="0.32"/>
      <stop offset="42%" stop-color="#D4AF37" stop-opacity="0.08"/>
      <stop offset="100%" stop-color="#080806" stop-opacity="0"/>
    </radialGradient>
    <linearGradient id="bg" x1="0" y1="0" x2="1280" y2="640">
      <stop offset="0" stop-color="#070807"/>
      <stop offset="0.52" stop-color="#11110D"/>
      <stop offset="1" stop-color="#050606"/>
    </linearGradient>
    <filter id="softGlow" x="-50%" y="-50%" width="200%" height="200%">
      <feGaussianBlur stdDeviation="7" result="blur"/>
      <feColorMatrix in="blur" type="matrix" values="1 0 0 0 0.83 0 1 0 0 0.68 0 0 1 0 0.22 0 0 0 0.78 0" result="glow"/>
      <feMerge>
        <feMergeNode in="glow"/>
        <feMergeNode in="SourceGraphic"/>
      </feMerge>
    </filter>
    <pattern id="grid" width="64" height="64" patternUnits="userSpaceOnUse">
      <path d="M64 0H0V64" stroke="#D4AF37" stroke-opacity="0.13" stroke-width="1"/>
    </pattern>
  </defs>

  <rect width="1280" height="640" fill="url(#bg)"/>
  <rect width="1280" height="640" fill="url(#grid)"/>
  <rect width="1280" height="640" fill="url(#goldGlow)"/>

  <g opacity="0.18" stroke="#F8F4E8" stroke-width="1">
    <path d="M0 128H1280"/><path d="M0 320H1280"/><path d="M0 512H1280"/>
    <path d="M160 0L1120 640"/><path d="M1120 0L160 640"/>
  </g>

  <g filter="url(#softGlow)">
    <circle cx="640" cy="300" r="112" fill="#D4AF37" fill-opacity="0.16"/>
    <path d="M640 184L750 248V376L640 440L530 376V248L640 184Z" fill="#0E0F0B" stroke="#F8F4E8" stroke-width="14"/>
    <path d="M640 216L720 262V362L640 408L560 362V262L640 216Z" fill="#D4AF37" fill-opacity="0.72" stroke="#0B0B09" stroke-width="8"/>
    <path d="M604 279H676M604 300H676M604 321H646" stroke="#F8F4E8" stroke-width="10" stroke-linecap="round"/>
  </g>

  <g stroke="#D4AF37" stroke-opacity="0.74" stroke-width="3" stroke-linecap="round">
    <path d="M530 300H346"/><path d="M750 300H934"/>
    <path d="M566 234L422 158"/><path d="M714 234L858 158"/>
    <path d="M566 366L422 442"/><path d="M714 366L858 442"/>
    <path d="M640 184V104"/><path d="M640 440V486"/>
  </g>

  <g fill="#F8F4E8" stroke="#D4AF37" stroke-width="3">
    <circle cx="346" cy="300" r="52"/><circle cx="934" cy="300" r="52"/>
    <circle cx="422" cy="158" r="46"/><circle cx="858" cy="158" r="46"/>
    <circle cx="422" cy="442" r="46"/><circle cx="858" cy="442" r="46"/>
    <circle cx="640" cy="104" r="44"/><circle cx="640" cy="486" r="32" fill="#D4AF37" fill-opacity="0.52"/>
  </g>

  <g fill="#D4AF37" opacity="0.85">
    <circle cx="530" cy="300" r="9"/><circle cx="750" cy="300" r="9"/>
    <circle cx="566" cy="234" r="8"/><circle cx="714" cy="234" r="8"/>
    <circle cx="566" cy="366" r="8"/><circle cx="714" cy="366" r="8"/>
    <circle cx="640" cy="184" r="8"/><circle cx="640" cy="440" r="8"/>
  </g>

  <g font-family="Arial, Helvetica, sans-serif" font-weight="700" font-size="18" letter-spacing="1.8" fill="#F8F4E8">
    <text x="286" y="304" text-anchor="middle">AUDIT</text>
    <text x="994" y="304" text-anchor="middle">MODELS</text>
    <text x="422" y="84" text-anchor="middle">CONTRACTS</text>
    <text x="858" y="84" text-anchor="middle">TOOLS</text>
    <text x="422" y="526" text-anchor="middle">POLICY</text>
    <text x="640" y="54" text-anchor="middle">GRADING</text>
  </g>

  <rect y="512" width="1280" height="128" fill="#030403" fill-opacity="0.66"/>
  <line x1="290" y1="520" x2="990" y2="520" stroke="#D4AF37" stroke-opacity="0.65" stroke-width="2"/>
  <text x="640" y="584" text-anchor="middle" font-family="Arial, Helvetica, sans-serif" font-size="58" font-weight="400" letter-spacing="2" fill="#F8F4E8">HaleES Architecture</text>
  <text x="640" y="622" text-anchor="middle" font-family="Arial, Helvetica, sans-serif" font-size="18" font-weight="700" letter-spacing="2.2" fill="#D4AF37">ENFORCEMENT-FIRST GOVERNANCE FOR RELIABLE AI OPERATIONS</text>
</svg>
